<svg id="Capa_1" enable-background="new 0 0 512 512" height="512" viewBox="0 0 512 512" width="512" xmlns="http://www.w3.org/2000/svg"><g><path d="m239.484 450.315h-182.133c-9.122 0-16.516-7.395-16.516-16.516v-109.565c0-9.122 7.395-16.516 16.516-16.516h182.133c9.122 0 16.516 7.395 16.516 16.516v117.572z" fill="#eceaec"/><path d="m49.548 350.968v-33.032l-16.516 8.258v115.613c0 9.122 7.395 16.516 16.516 16.516h189.935c9.121 0 16.516-7.395 16.516-16.516h-24.774z" fill="#dbd8db"/><path d="m239.484 293.161h-189.936l-9.139 17.39 9.139 15.643h206.452v-16.516c0-9.123-7.395-16.517-16.516-16.517z" fill="#8ceea1"/><path d="m231.226 441.806h-173.42c-4.561 0-8.258-3.697-8.258-8.258v-82.581c0-4.561 3.697-8.258 8.258-8.258h173.419c4.561 0 8.258 3.697 8.258 8.258v82.581c.001 4.561-3.696 8.258-8.257 8.258z" fill="#fff"/><g><path d="m206.452 384h-123.871c-4.565 0-8.258-3.698-8.258-8.258s3.694-8.258 8.258-8.258h123.871c4.565 0 8.258 3.698 8.258 8.258s-3.694 8.258-8.258 8.258z" fill="#8ceea1"/></g><g><path d="m206.452 417.032h-123.871c-4.565 0-8.258-3.698-8.258-8.258s3.694-8.258 8.258-8.258h123.871c4.565 0 8.258 3.698 8.258 8.258s-3.694 8.258-8.258 8.258z" fill="#b8b2b8"/></g><path d="m49.548 293.161c-9.121 0-16.516 7.394-16.516 16.516v16.516h16.516z" fill="#4ce1a1"/><path d="m462.452 252.994h-189.936c-9.122 0-16.516-7.395-16.516-16.516v-124.994c0-9.122 7.395-16.516 16.516-16.516h189.935c9.122 0 16.516 7.395 16.516 16.516v132.129z" fill="#eceaec"/><path d="m272.516 152.774v-33.032l-16.516 8.258v115.613c0 9.122 7.395 16.516 16.516 16.516h189.935c9.121 0 16.516-7.395 16.516-16.516h-24.774z" fill="#dbd8db"/><path d="m462.452 94.968h-189.936s-7.636 19.131-7.636 19.131l7.636 13.901h206.452v-16.516c0-9.122-7.395-16.516-16.516-16.516z" fill="#fbbd80"/><path d="m454.194 243.613h-173.42c-4.561 0-8.258-3.697-8.258-8.258v-82.581c0-4.561 3.697-8.258 8.258-8.258h173.419c4.561 0 8.258 3.697 8.258 8.258v82.581c.001 4.561-3.697 8.258-8.257 8.258z" fill="#fff"/><g><path d="m429.419 177.548h-123.871c-4.565 0-8.258-3.698-8.258-8.258s3.694-8.258 8.258-8.258h123.871c4.565 0 8.258 3.698 8.258 8.258 0 4.561-3.693 8.258-8.258 8.258z" fill="#f4aa73"/></g><g><path d="m429.419 210.581h-74.323c-4.565 0-8.258-3.698-8.258-8.258s3.694-8.258 8.258-8.258h74.323c4.565 0 8.258 3.698 8.258 8.258s-3.693 8.258-8.258 8.258z" fill="#b8b2b8"/></g><path d="m272.516 94.968c-9.121 0-16.516 7.394-16.516 16.516v16.516h16.516z" fill="#f4aa73"/><path d="m206.452 193.818h-182.658c-9.122 0-16.516-7.395-16.516-16.516v-140.141h199.173c9.122 0 16.516 7.395 16.516 16.516v123.625c.001 9.122-7.394 16.516-16.515 16.516z" fill="#eceaec"/><path d="m16.516 78.452v-33.033l-16.516 8.258v132.129c0 9.122 7.395 16.516 16.516 16.516h189.935c9.121 0 16.516-7.395 16.516-16.516h-24.774z" fill="#dbd8db"/><path d="m206.452 20.645h-189.936l-6.405 18.522 6.405 14.511h206.452v-16.517c0-9.122-7.395-16.516-16.516-16.516z" fill="#dfbdf0"/><path d="m198.194 185.806h-173.42c-4.561 0-8.258-3.697-8.258-8.258v-99.096c0-4.561 3.697-8.258 8.258-8.258h173.419c4.561 0 8.258 3.697 8.258 8.258v99.097c.001 4.56-3.697 8.257-8.257 8.257z" fill="#fff"/><path d="m173.419 103.226h-123.871c-4.565 0-8.258-3.698-8.258-8.258s3.694-8.258 8.258-8.258h123.871c4.565 0 8.258 3.698 8.258 8.258s-3.693 8.258-8.258 8.258z" fill="#dfbdf0"/><path d="m173.419 169.29h-123.871c-4.565 0-8.258-3.698-8.258-8.258s3.694-8.258 8.258-8.258h123.871c4.565 0 8.258 3.698 8.258 8.258s-3.693 8.258-8.258 8.258z" fill="#c9c5c9"/><path d="m148.645 136.258h-74.322c-4.565 0-8.258-3.698-8.258-8.258s3.694-8.258 8.258-8.258h74.323c4.565 0 8.258 3.698 8.258 8.258s-3.694 8.258-8.259 8.258z" fill="#b8b2b8"/><path d="m16.516 20.645c-9.121 0-16.516 7.394-16.516 16.516v16.516h16.516z" fill="#cbb0f2"/><path d="m404.645 276.645c0 82.094-66.551 138.81-148.645 138.81s-139.681-56.716-139.681-138.81c0-50.581 16.3-95.262 54.898-122.111 24.047-16.728 53.27-26.534 84.783-26.534 82.094 0 148.645 66.551 148.645 148.645z" fill="#c9c5c9"/><path d="m387.446 263.052c-6.183-61.683-56.17-111.67-117.853-117.853-32.342-3.242-62.531 5.236-86.957 21.657-7.607 5.114-16.992-4.297-11.776-11.835l.357-.488c-44.143 30.754-70.921 84.885-62.228 144.462 9.328 63.923 60.737 115.332 124.66 124.66 59.576 8.694 113.577-18.048 144.331-62.192-.128.089-.255.178-.383.266-7.538 5.216-16.923-4.114-11.808-11.721 16.421-24.425 24.899-54.614 21.657-86.956z" fill="#b8b2b8"/><circle cx="256" cy="276.645" fill="#eceaec" r="115.613"/><circle cx="256" cy="276.645" fill="#fff" r="99.097"/><path d="m338.581 284.903h-82.581c-2.194 0-4.29-.871-5.839-2.419l-49.548-49.548c-3.226-3.226-3.226-8.452 0-11.677 3.226-3.226 8.452-3.226 11.677 0l47.129 47.129h79.161c4.565 0 8.258 3.698 8.258 8.258s-3.693 8.257-8.257 8.257z" fill="#4e3d4d"/><g fill="#887f88"><path d="m256 210.581c-4.565 0-8.258-3.698-8.258-8.258v-8.258c0-4.56 3.694-8.258 8.258-8.258s8.258 3.698 8.258 8.258v8.258c0 4.56-3.693 8.258-8.258 8.258z"/><path d="m256 367.484c-4.565 0-8.258-3.698-8.258-8.258v-8.258c0-4.56 3.694-8.258 8.258-8.258s8.258 3.698 8.258 8.258v8.258c0 4.56-3.693 8.258-8.258 8.258z"/><path d="m181.677 284.903h-8.258c-4.565 0-8.258-3.698-8.258-8.258s3.694-8.258 8.258-8.258h8.258c4.565 0 8.258 3.698 8.258 8.258s-3.693 8.258-8.258 8.258z"/><circle cx="256" cy="276.645" r="16.516"/></g><path d="m495.484 483.655h-180.867c-9.122 0-16.516-7.395-16.516-16.516v-124.429c0-9.122 7.395-16.516 16.516-16.516h180.867c9.122 0 16.516 7.395 16.516 16.516v132.129z" fill="#eceaec"/><path d="m305.548 367.484v-33.032l-16.516 8.258v132.129c0 9.122 7.395 16.516 16.516 16.516h189.935c9.121 0 16.516-7.395 16.516-16.516h-24.774z" fill="#dbd8db"/><path d="m495.484 309.677h-189.936l-7.872 17.163 7.872 15.869h206.452v-16.516c0-9.121-7.395-16.516-16.516-16.516z" fill="#ff5f7a"/><path d="m487.226 474.839h-173.42c-4.561 0-8.258-3.697-8.258-8.258v-99.097c0-4.561 3.697-8.258 8.258-8.258h173.419c4.561 0 8.258 3.697 8.258 8.258v99.097c.001 4.56-3.696 8.258-8.257 8.258z" fill="#fff"/><path d="m462.452 392.258h-123.871c-4.565 0-8.258-3.698-8.258-8.258s3.694-8.258 8.258-8.258h123.871c4.565 0 8.258 3.698 8.258 8.258s-3.694 8.258-8.258 8.258z" fill="#ff5f7a"/><path d="m462.452 458.323h-123.871c-4.565 0-8.258-3.698-8.258-8.258s3.694-8.258 8.258-8.258h123.871c4.565 0 8.258 3.698 8.258 8.258s-3.694 8.258-8.258 8.258z" fill="#887f88"/><path d="m437.677 425.29h-74.323c-4.565 0-8.258-3.698-8.258-8.258s3.694-8.258 8.258-8.258h74.323c4.565 0 8.258 3.698 8.258 8.258s-3.693 8.258-8.258 8.258z" fill="#736572"/><path d="m305.548 309.677c-9.121 0-16.516 7.394-16.516 16.516v16.516h16.516z" fill="#fb4455"/></g></svg>