<svg id="Capa_1" enable-background="new 0 0 512 512" height="512" viewBox="0 0 512 512" width="512" xmlns="http://www.w3.org/2000/svg"><g><g><path d="m512 448.367-.205-.205v.41z"/><path d="m356.455 292.822-32.974 30.659-32.973 30.66 157.859 157.859 31.817-31.816 31.611-31.612v-.41z" fill="#ff6c6c"/><path d="m511.795 448.162-155.34-155.34-32.974 30.659 156.703 156.703 31.611-31.612z" fill="#e63950"/></g><path d="m210 0c-57.898 0-110.398 23.551-148.423 61.577s-61.577 90.525-61.577 148.423c0 115.796 94.204 210 210 210 57.898 0 110.398-23.551 148.423-61.577s61.577-90.525 61.577-148.423c0-115.796-94.204-210-210-210z" fill="#47568c"/><path d="m210 0c-57.898 0-110.398 23.551-148.423 61.577l296.847 296.847c38.025-38.026 61.576-90.526 61.576-148.424 0-115.796-94.204-210-210-210z" fill="#29376d"/><path d="m210 30c-49.629 0-94.629 20.186-127.222 52.778s-52.778 77.593-52.778 127.222c0 99.258 80.742 180 180 180 49.629 0 94.629-20.186 127.222-52.778s52.778-77.593 52.778-127.222c0-99.258-80.742-180-180-180z" fill="#f0f7ff"/><path d="m210 30c-49.629 0-94.629 20.186-127.222 52.778l254.443 254.443c32.593-32.592 52.779-77.592 52.779-127.221 0-99.258-80.742-180-180-180z" fill="#dfe7f4"/><path d="m265.605 94.395c-1.977-1.993-20.405-19.395-55.605-19.395s-53.628 17.402-55.605 19.395l-4.395 4.394v51.357h30v-37.632c5.303-3.179 15.249-7.515 30-7.515 14.795 0 24.756 4.365 30 7.485v37.516h30v-51.211z" fill="#29376d"/><path d="m306.473 165h-141.473-49.422l-25.578 30v120h225 15v-120z" fill="#47568c"/><path d="m330 195-23.527-30h-141.473l150 150h15z" fill="#29376d"/><path d="m195 180v15 30h30v-45z" fill="#ffe666"/><path d="m195 180v15l30 30v-45z" fill="#ffc34d"/><path d="m135 135h-45v60h105 135v-60z" fill="#61729b"/><path d="m330 135h-195l60 60h135z" fill="#47568c"/></g></svg>