<svg height="512" viewBox="0 0 512 512" width="512" xmlns="http://www.w3.org/2000/svg"><path d="m272 372h-68.118a48 48 0 0 0 -33.941 14.059l-17.941 17.941 40 40 19.314-19.314a16 16 0 0 1 11.313-4.686h49.373a24 24 0 0 0 24-24 24 24 0 0 0 -24-24z" fill="#fab991"/><path d="m387.313 360.686a16 16 0 0 0 -22.626 0l-59.314 59.314h-82.746a16 16 0 0 0 -11.313 4.686l-19.314 19.314 24 24 16-16h76.687a23.843 23.843 0 0 0 16.97-7.03l61.656-61.656a16 16 0 0 0 0-22.628z" fill="#f0915a"/><path d="m266.667 382.667h5.333a13.333 13.333 0 0 1 13.333 13.333 13.333 13.333 0 0 1 -13.333 13.333h-5.333a8 8 0 0 1 -8-8v-10.666a8 8 0 0 1 8-8z" fill="#f0915a"/><path d="m149.657 401.657 42.343 42.343-40 40h-96l82.343-82.343a8 8 0 0 1 11.314 0z" fill="#55525b"/><path d="m192 444 26.343 26.343a8 8 0 0 1 0 11.314l-2.343 2.343h-64z" fill="#353744"/><rect fill="#82cdaa" height="352" rx="16" transform="matrix(0 1 -1 0 504 -24)" width="200" x="164" y="64"/><path d="m112 284v-88a8 8 0 0 1 8-8 16 16 0 0 0 16-16 8 8 0 0 1 8-8h240a8 8 0 0 1 8 8 16 16 0 0 0 16 16 8 8 0 0 1 8 8v88a8 8 0 0 1 -8 8 16 16 0 0 0 -16 16 8 8 0 0 1 -8 8h-240a8 8 0 0 1 -8-8 16 16 0 0 0 -16-16 8 8 0 0 1 -8-8z" fill="#377d82"/><circle cx="264" cy="240" fill="#82cdaa" r="60"/><rect fill="#353744" height="32" rx="16" width="384" x="72" y="44"/><rect fill="#55525b" height="32" rx="16" width="192" x="72" y="44"/><path d="m136 76h256a0 0 0 0 1 0 0v56a8 8 0 0 1 -8 8h-240a8 8 0 0 1 -8-8v-56a0 0 0 0 1 0 0z" fill="#353744"/><path d="m136 92h128a0 0 0 0 1 0 0v48a0 0 0 0 1 0 0h-120a8 8 0 0 1 -8-8v-40a0 0 0 0 1 0 0z" fill="#55525b"/><path d="m264 28h160a16 16 0 0 1 16 16 0 0 0 0 1 0 0h-192a0 0 0 0 1 0 0 16 16 0 0 1 16-16z" fill="#fabe19"/><path d="m424 44h16v88h-16z" fill="#f5871e"/><path d="m424 132h16v8h-16z" fill="#d7e6f0"/><path d="m424 140h16a8 8 0 0 1 8 8v44a4 4 0 0 1 -4 4h-24a4 4 0 0 1 -4-4v-44a8 8 0 0 1 8-8z" fill="#fabe19"/><path d="m436 148h12a0 0 0 0 1 0 0v44a4 4 0 0 1 -4 4h-12a0 0 0 0 1 0 0v-44a4 4 0 0 1 4-4z" fill="#f5871e"/><g fill="#fabe19"><path d="m208 100a8 8 0 0 1 8 8v16a0 0 0 0 1 0 0h-16a0 0 0 0 1 0 0v-16a8 8 0 0 1 8-8z"/><path d="m220 120h16a0 0 0 0 1 0 0v16a8 8 0 0 1 -8 8 8 8 0 0 1 -8-8v-16a0 0 0 0 1 0 0z" transform="matrix(0 -1 1 0 96 360)"/><path d="m208 140a8 8 0 0 1 8 8v16a0 0 0 0 1 0 0h-16a0 0 0 0 1 0 0v-16a8 8 0 0 1 8-8z" transform="matrix(-1 0 0 -1 416 304)"/><path d="m180 120h16a0 0 0 0 1 0 0v16a8 8 0 0 1 -8 8 8 8 0 0 1 -8-8v-16a0 0 0 0 1 0 0z" transform="matrix(0 1 -1 0 320 -56)"/><path d="m448 348a8 8 0 0 1 8 8v16a0 0 0 0 1 0 0h-16a0 0 0 0 1 0 0v-16a8 8 0 0 1 8-8z"/><path d="m460 368h16a0 0 0 0 1 0 0v16a8 8 0 0 1 -8 8 8 8 0 0 1 -8-8v-16a0 0 0 0 1 0 0z" transform="matrix(0 -1 1 0 88 848)"/><path d="m448 388a8 8 0 0 1 8 8v16a0 0 0 0 1 0 0h-16a0 0 0 0 1 0 0v-16a8 8 0 0 1 8-8z" transform="matrix(-1 0 0 -1 896 800)"/><path d="m420 368h16a0 0 0 0 1 0 0v16a8 8 0 0 1 -8 8 8 8 0 0 1 -8-8v-16a0 0 0 0 1 0 0z" transform="matrix(0 1 -1 0 808 -48)"/><path d="m64 316a8 8 0 0 1 8 8v16a0 0 0 0 1 0 0h-16a0 0 0 0 1 0 0v-16a8 8 0 0 1 8-8z"/><path d="m76 336h16a0 0 0 0 1 0 0v16a8 8 0 0 1 -8 8 8 8 0 0 1 -8-8v-16a0 0 0 0 1 0 0z" transform="matrix(0 -1 1 0 -264 432)"/><path d="m64 356a8 8 0 0 1 8 8v16a0 0 0 0 1 0 0h-16a0 0 0 0 1 0 0v-16a8 8 0 0 1 8-8z" transform="matrix(-1 0 0 -1 128 736)"/><path d="m36 336h16a0 0 0 0 1 0 0v16a8 8 0 0 1 -8 8 8 8 0 0 1 -8-8v-16a0 0 0 0 1 0 0z" transform="matrix(0 1 -1 0 392 304)"/></g><path d="m280.2 228.667a6 6 0 0 0 6-6v-1.167a20.851 20.851 0 0 0 -16-20.243v-2.589a6 6 0 1 0 -12 0v2.589a20.818 20.818 0 0 0 -4.483 38.877l15.6 7.8a8.832 8.832 0 0 1 -3.95 16.732h-2.335a8.844 8.844 0 0 1 -8.833-8.833v-1.167a6 6 0 1 0 -12 0v1.167a20.854 20.854 0 0 0 16 20.244v2.589a6 6 0 0 0 12 0v-2.589a20.818 20.818 0 0 0 4.485-38.877l-15.6-7.8a8.833 8.833 0 0 1 3.95-16.733h2.335a8.842 8.842 0 0 1 8.831 8.833v1.168a6 6 0 0 0 6 5.999z" fill="#377d82"/></svg>