<?xml version="1.0" encoding="iso-8859-1"?>
<!-- Generator: Adobe Illustrator 19.0.0, SVG Export Plug-In . SVG Version: 6.00 Build 0)  -->
<svg version="1.1" id="Capa_1" xmlns="http://www.w3.org/2000/svg" xmlns:xlink="http://www.w3.org/1999/xlink" x="0px" y="0px"
	 viewBox="0 0 512.002 512.002" style="enable-background:new 0 0 512.002 512.002;" xml:space="preserve">
<path style="fill:#2B2F33;" d="M182.972,214.74V55.863c0-8.304,6.732-15.035,15.035-15.035h224.88
	c8.304,0,15.035,6.732,15.035,15.035V214.74c0,8.304-6.732,15.035-15.035,15.035h-224.88
	C189.703,229.776,182.972,223.044,182.972,214.74z"/>
<path style="fill:#5F6E9B;" d="M66.883,474.745c-12.177,0-22.048-9.871-22.048-22.048V276.465c0-12.177,9.871-22.048,22.048-22.048
	s22.048,9.871,22.048,22.048v176.232C88.931,464.874,79.06,474.745,66.883,474.745z"/>
<path style="fill:#414B82;" d="M120.107,474.745c-12.177,0-22.048-9.871-22.048-22.048V276.465c0-12.177,9.871-22.048,22.048-22.048
	c12.177,0,22.048,9.871,22.048,22.048v176.232C142.155,464.874,132.284,474.745,120.107,474.745z"/>
<path style="fill:#50555A;" d="M249.514,160.577c-5.363-8.639-16.714-11.295-25.354-5.931L186.869,177.8v-34.428
	c-0.12-23.905-19.839-43.353-43.745-43.353h-0.964v-0.008H44.174c-24.229,0-44.038,19.407-44.158,43.261c0,0.031,0,0.062,0,0.093
	v134.982c0,10.148,8.226,18.374,18.374,18.374s18.374-8.226,18.374-18.374V143.426c0.039-3.494,3.561-6.669,7.412-6.669h0.662
	v139.708h97.321V136.844h0.968c3.702,0,7.068,3.012,7.086,6.714v67.337c0.034,6.667,3.668,12.796,9.503,16.021
	c2.777,1.535,5.845,2.298,8.908,2.298c3.375,0,6.744-0.926,9.713-2.77l65.25-40.512
	C252.223,180.568,254.878,169.216,249.514,160.577z"/>
<path style="fill:#373C41;" d="M249.514,160.577c-5.363-8.639-16.714-11.295-25.354-5.931L186.869,177.8v-34.428
	c-0.12-23.905-19.839-43.353-43.745-43.353h-0.964v-0.008H93.496v176.454h48.66V136.844h0.968c3.702,0,7.068,3.012,7.086,6.714
	v67.337c0.034,6.667,3.668,12.796,9.503,16.021c2.777,1.535,5.845,2.298,8.908,2.298c3.375,0,6.744-0.926,9.713-2.77l65.25-40.512
	C252.223,180.568,254.878,169.216,249.514,160.577z"/>
<path style="fill:#FFB69E;" d="M249.514,160.577c-5.363-8.639-16.713-11.295-25.354-5.931l19.425,31.285
	C252.223,180.568,254.878,169.216,249.514,160.577z"/>
<rect x="212.179" y="168.367" transform="matrix(-0.5226 -0.8526 0.8526 -0.5226 204.2031 458.9276)" style="fill:#FFFFFF;" width="36.825" height="7.849"/>
<circle style="fill:#FFB69E;" cx="93.492" cy="50.206" r="38.082"/>
<g>
	<rect x="0.001" y="268.946" style="fill:#FFFFFF;" width="36.747" height="8.917"/>
	<polygon style="fill:#FFFFFF;" points="93.505,100.011 65.451,100.011 93.505,173.623 121.558,100.011 	"/>
</g>
<path style="fill:#0091C8;" d="M106.469,130.317c0.35-1.752,0.07-3.569-0.79-5.135l-6.244-11.358l5.419-9.856
	c0.976-1.777-0.31-3.957-2.34-3.957H84.497c-2.028,0-3.319,2.178-2.34,3.957l5.419,9.856l-6.244,11.358
	c-0.86,1.565-1.14,3.384-0.79,5.135l3.282,17.9l9.683,25.406l9.683-25.406L106.469,130.317z"/>
<path style="fill:#0073AA;" d="M102.513,100.011c2.028,0,3.319,2.178,2.34,3.957l-5.419,9.856l6.244,11.358
	c0.86,1.565,1.14,3.384,0.79,5.135l-3.282,17.899l-9.683,25.407v-73.611L102.513,100.011L102.513,100.011z"/>
<path style="fill:#FFB69E;" d="M0,277.865v0.473c0,10.153,8.231,18.384,18.384,18.384s18.384-8.231,18.384-18.384v-0.473H0z"/>
<rect x="108.67" y="160.136" style="fill:#50555A;" width="21.776" height="6.351"/>
<path style="fill:#41B4E6;" d="M246.488,101.097l3.879-3.879c2.927-2.927,2.927-7.672,0-10.598c-2.927-2.927-7.672-2.927-10.598,0
	l-3.879,3.879l-3.879-3.879c-2.926-2.927-7.671-2.927-10.598,0c-2.927,2.927-2.927,7.671,0,10.598l3.879,3.879l-3.879,3.878
	c-2.927,2.927-2.927,7.672,0,10.598c1.463,1.464,3.382,2.195,5.299,2.195s3.836-0.731,5.299-2.195l3.879-3.878l3.879,3.878
	c1.463,1.464,3.382,2.195,5.299,2.195c1.918,0,3.836-0.731,5.299-2.195c2.927-2.927,2.927-7.671,0-10.598L246.488,101.097z"/>
<path style="fill:#FA2D14;" d="M394.123,88.719l3.879-3.879c2.927-2.927,2.927-7.671,0-10.598c-2.926-2.927-7.671-2.927-10.598,0
	l-3.879,3.879l-3.879-3.879c-2.927-2.927-7.672-2.927-10.598,0c-2.927,2.927-2.927,7.672,0,10.598l3.879,3.879l-3.879,3.878
	c-2.927,2.927-2.927,7.672,0,10.598c1.463,1.464,3.382,2.195,5.299,2.195s3.836-0.731,5.299-2.195l3.879-3.878l3.879,3.878
	c1.463,1.464,3.382,2.195,5.299,2.195s3.836-0.731,5.299-2.195c2.927-2.927,2.927-7.672,0-10.598L394.123,88.719z"/>
<g>
	<path style="fill:#FFFFFF;" d="M348.595,193.717c-26.846,0.001-41.035-14.225-51.255-48.72
		c-10.135-34.204-32.403-32.655-32.63-32.635c-4.11,0.367-7.759-2.687-8.12-6.811c-0.362-4.123,2.687-7.759,6.811-8.12
		c1.415-0.124,34.737-2.505,48.311,43.309c10.945,36.94,24.033,41.073,51.114,36.7c4.084-0.66,7.934,2.117,8.594,6.203
		s-2.118,7.933-6.203,8.594C359.184,193.21,353.663,193.717,348.595,193.717z"/>
	<circle style="fill:#FFFFFF;" cx="370.509" cy="153.331" r="12.52"/>
</g>
<path style="fill:#78BEFF;" d="M383.447,499.877v-59.963c0.015-3.001,3.038-5.734,6.343-5.734h0.31v65.698h83.29V434.18h0.818
	c3.306,0,6.328,2.733,6.343,5.655v60.042h31.45v-60.122c-0.104-20.416-17.057-37.025-37.792-37.025h-84.417
	c-20.736,0-37.689,16.61-37.792,37.104v60.042h31.447V499.877z"/>
<circle style="fill:#FFB69E;" cx="432.134" cy="359.75" r="32.589"/>
<path style="fill:#64AFFF;" d="M473.39,499.877v-65.698h0.818c3.306,0,6.328,2.733,6.343,5.655v60.042h31.45v-60.122
	c-0.104-20.416-17.057-37.025-37.792-37.025h-42.209v97.147L473.39,499.877L473.39,499.877z"/>
<circle style="fill:#692810;" cx="256.592" cy="359.75" r="32.589"/>
<path style="fill:#919196;" d="M208.04,499.877v-59.963c0.015-3.001,3.038-5.734,6.343-5.734h0.31v65.698h83.29V434.18h0.818
	c3.306,0,6.328,2.733,6.343,5.655v60.042h31.45v-60.122c-0.104-20.416-17.057-37.025-37.792-37.025h-84.419
	c-20.736,0-37.689,16.61-37.792,37.104v60.042h31.449V499.877z"/>
<path style="fill:#838387;" d="M297.983,499.877v-65.698h0.818c3.306,0,6.328,2.733,6.343,5.655v60.042h31.45v-60.122
	c-0.104-20.416-17.057-37.025-37.792-37.025h-42.076v97.147L297.983,499.877L297.983,499.877z"/>
<circle style="fill:#FFB69E;" cx="81.121" cy="359.75" r="32.589"/>
<path style="fill:#FA2D14;" d="M32.566,499.877v-59.963c0.015-3.001,3.038-5.734,6.343-5.734h0.31v65.698h83.29V434.18h0.818
	c3.306,0,6.328,2.733,6.343,5.655v60.042h31.45v-60.122c-0.104-20.416-17.057-37.025-37.792-37.025H38.91
	c-20.736,0-37.689,16.61-37.792,37.104v60.042h31.449V499.877z"/>
<path style="fill:#DC1428;" d="M122.509,499.877v-65.698h0.818c3.306,0,6.328,2.733,6.343,5.655v60.042h31.45v-60.122
	c-0.104-20.416-17.057-37.025-37.792-37.025H81.12v97.147L122.509,499.877L122.509,499.877z"/>
<g>
</g>
<g>
</g>
<g>
</g>
<g>
</g>
<g>
</g>
<g>
</g>
<g>
</g>
<g>
</g>
<g>
</g>
<g>
</g>
<g>
</g>
<g>
</g>
<g>
</g>
<g>
</g>
<g>
</g>
</svg>
